<svg width="49" height="48" viewBox="0 0 49 48" fill="none" xmlns="http://www.w3.org/2000/svg">
<path d="M32.9881 28.0944L36.3372 34.0436C35.2651 34.3484 34.0728 34.7727 33.2822 35.1058C28.9527 36.9255 26.1602 39.3705 24.9775 42.3655C23.9876 44.8734 24.3608 47.1519 24.8098 48.5505C24.5252 48.563 19.7625 48.8899 17.5045 47.4913C17.3811 46.3977 17.3463 45.4234 17.4222 43.9935C17.7986 36.9852 21.407 32.4376 26.7959 29.9926C27.5043 29.672 28.0514 29.078 28.2949 28.3489C28.5384 27.623 28.4594 26.8247 28.0862 26.1584C27.5992 25.2973 26.682 24.7599 25.6859 24.7599C25.2969 24.7599 24.9174 24.8416 24.56 25.0019C16.7961 28.4401 12.0934 34.6124 12.0934 43.0569C12.0934 43.8301 12.1883 44.8074 12.2705 45.568C9.35785 44.1946 8.17507 42.9532 6.05936 40.5868C6.04987 40.5585 6.04671 40.5302 6.04354 40.5082C5.86961 39.3422 5.78106 38.1448 5.78106 36.9443C5.78106 27.3401 9.81957 19.477 18.6556 15.5266C19.3482 15.2154 19.8858 14.6277 20.123 13.9112C20.3602 13.1978 20.2843 12.4152 19.9143 11.7584C19.4336 10.9067 18.5291 10.3819 17.5519 10.3819C17.1724 10.3819 16.8055 10.4605 16.4608 10.6113C7.48881 14.6089 2.46675 21.9377 0.891826 31.2214C0.309925 29.166 0 27.0007 0 24.7631C0 11.617 10.724 0.959961 23.9528 0.959961C31.3973 0.959961 38.0481 4.33526 42.4408 9.63078C38.6616 7.98712 34.5504 7.12601 30.3885 7.12601C29.2532 7.12601 28.1147 7.18887 26.9983 7.31144C25.9578 7.42772 24.9174 7.60057 23.9054 7.8237C23.412 7.93055 23.0104 8.25426 22.8048 8.7131C22.5961 9.17194 22.6214 9.6842 22.8681 10.1242L24.288 12.6384L32.7509 27.6732L32.9912 28.0944H32.9881Z" fill="url(#paint0_linear_3269_917)"/>
<path d="M48.2981 24.3758C48.2981 25.0232 48.2728 25.6675 48.219 26.2992C48.0957 26.2112 47.9723 26.1232 47.8522 26.0383L47.7984 26.0006C44.4841 23.7033 40.6132 22.3928 36.5778 22.1948L30.8379 11.9966C34.304 12.2763 42.9471 13.4831 47.5296 18.5869C47.5296 18.5869 48.3012 22.3676 48.3012 24.3758H48.2981Z" fill="url(#paint1_linear_3269_917)"/>
<path d="M46.8252 32.6162C46.2844 34.0933 45.6298 35.4195 44.817 36.7458C44.4945 36.1706 44.2446 35.7307 44.0486 35.3944C43.7481 34.8758 43.5805 34.6024 43.4793 34.4484L40.0859 28.4207C41.3035 28.8135 42.8025 29.3478 43.6121 29.8223C44.7317 30.476 45.7753 31.268 46.7114 32.1762C46.7493 32.2077 46.8157 32.3208 46.8442 32.4716L46.8252 32.6131V32.6162Z" fill="url(#paint2_linear_3269_917)"/>
<path d="M40.7395 41.6325L40.6352 41.8085C38.1273 44.1656 35.4581 45.8124 32.1059 46.9217H31.9161C31.4671 46.862 31.0338 46.5635 30.7555 46.1235C30.4519 45.6364 30.3792 45.0455 30.5626 44.505C31.1698 42.7042 33.7694 40.7085 37.1849 39.4232C37.6498 39.2472 38.2664 39.134 38.7535 39.134C38.8389 39.134 38.9179 39.1403 38.9938 39.1466C39.6485 39.2095 40.2399 39.5834 40.5814 40.1491C40.8755 40.6363 40.9324 41.18 40.7395 41.6357V41.6325Z" fill="url(#paint3_linear_3269_917)"/>
<defs>
<linearGradient id="paint0_linear_3269_917" x1="8.02327" y1="-7.89942" x2="37.2765" y2="53.6274" gradientUnits="userSpaceOnUse">
<stop stop-color="#71E9DE"/>
<stop offset="0.87" stop-color="#3A1EA1"/>
</linearGradient>
<linearGradient id="paint1_linear_3269_917" x1="24.2156" y1="-15.7978" x2="53.4657" y2="45.729" gradientUnits="userSpaceOnUse">
<stop stop-color="#71E9DE"/>
<stop offset="0.87" stop-color="#3A1EA1"/>
</linearGradient>
<linearGradient id="paint2_linear_3269_917" x1="21.775" y1="-14.6349" x2="51.0283" y2="46.8919" gradientUnits="userSpaceOnUse">
<stop stop-color="#71E9DE"/>
<stop offset="0.87" stop-color="#3A1EA1"/>
</linearGradient>
<linearGradient id="paint3_linear_3269_917" x1="10.4491" y1="-9.25157" x2="39.7023" y2="52.2752" gradientUnits="userSpaceOnUse">
<stop stop-color="#71E9DE"/>
<stop offset="0.87" stop-color="#3A1EA1"/>
</linearGradient>
</defs>
</svg>
